<?xml version="1.0" standalone="no"?>
<!DOCTYPE svg PUBLIC "-//W3C//DTD SVG 20010904//EN"
 "http://www.w3.org/TR/2001/REC-SVG-20010904/DTD/svg10.dtd">
<svg version="1.0" xmlns="http://www.w3.org/2000/svg"
 width="952.000000pt" height="952.000000pt" viewBox="0 0 952.000000 952.000000"
 preserveAspectRatio="xMidYMid meet">
<metadata>
Created by potrace 1.14, written by Peter Selinger 2001-2017
</metadata>
<g transform="translate(0.000000,952.000000) scale(0.100000,-0.100000)"
fill="#000000" stroke="none">
<path d="M0 4760 l0 -4760 4760 0 4760 0 0 4760 0 4760 -4760 0 -4760 0 0
-4760z m3120 313 c73 -192 136 -351 140 -355 3 -5 67 151 141 345 l136 352
151 3 c84 1 152 -1 152 -5 0 -5 9 -102 20 -218 11 -115 20 -218 20 -227 0 -16
16 -18 151 -20 l152 -3 105 -194 106 -194 41 84 c22 46 63 135 92 197 l52 112
151 0 c118 0 151 -3 147 -12 -3 -7 -138 -267 -300 -578 l-295 -565 -151 -3
c-83 -1 -151 0 -151 4 0 3 59 118 130 255 l130 249 -177 315 c-97 173 -177
314 -178 312 -1 -1 13 -162 31 -357 18 -195 33 -363 34 -372 0 -16 -13 -18
-139 -18 l-139 0 -6 58 c-4 31 -15 174 -26 317 -25 329 -30 373 -40 355 -4 -8
-63 -174 -130 -368 l-123 -353 -85 3 -85 3 -66 190 c-37 105 -93 265 -125 358
-32 92 -62 167 -66 167 -4 0 -10 -39 -13 -87 -3 -49 -16 -213 -28 -365 l-22
-278 -139 0 -138 0 0 28 c0 38 100 1162 106 1190 4 22 7 22 153 22 l148 0 133
-347z m-993 318 l112 -6 -101 -181 -100 -181 -402 -231 c-220 -126 -402 -229
-404 -227 -2 1 40 80 92 174 53 94 96 173 96 176 0 3 -28 5 -62 5 -35 0 -127
3 -205 7 l-142 6 402 233 402 232 100 0 c55 0 150 -3 212 -7z m3511 -16 c183
-43 272 -155 260 -326 -8 -108 -64 -185 -170 -234 -45 -21 -53 -35 -19 -35 35
0 139 -59 172 -99 44 -50 59 -98 59 -184 0 -134 -62 -232 -183 -292 -97 -47
-161 -55 -444 -55 l-243 0 0 620 0 620 253 0 c187 0 268 -4 315 -15z m1311
-592 c134 -335 245 -614 248 -620 7 -18 -137 -18 -160 0 -9 6 -43 82 -75 167
l-59 155 -283 0 -283 0 -57 -148 c-32 -82 -65 -158 -74 -168 -13 -16 -30 -19
-92 -19 -57 0 -75 3 -71 13 3 6 114 285 248 620 l243 607 86 0 86 0 243 -607z
m913 123 l368 -478 0 481 0 481 70 0 70 0 0 -620 0 -620 -48 0 c-27 0 -57 7
-69 15 -12 9 -183 226 -380 482 l-358 466 -3 -481 -2 -482 -70 0 -70 0 0 620
0 621 62 -3 63 -3 367 -479z m-5685 67 c-69 -120 -187 -335 -187 -343 0 -6 78
-11 208 -12 l207 -3 -406 -232 -406 -233 -212 0 c-162 0 -211 3 -211 13 0 6
44 90 99 186 l98 173 399 229 c219 126 403 229 407 229 5 0 6 -3 4 -7z"/>
<path d="M5240 5050 l0 -210 155 0 c130 0 163 3 208 20 52 20 94 55 115 95 36
72 20 186 -34 240 -52 52 -111 65 -291 65 l-153 0 0 -210z"/>
<path d="M5240 4500 l0 -222 178 5 c195 5 235 13 289 60 70 61 93 168 54 252
-23 49 -43 68 -106 97 -45 20 -70 23 -232 26 l-183 4 0 -222z"/>
<path d="M6610 5205 c0 -8 -49 -142 -110 -299 -60 -157 -110 -287 -110 -290 0
-4 104 -6 230 -6 127 0 230 2 230 4 0 3 -49 134 -110 291 -60 157 -110 293
-110 301 0 8 -4 14 -10 14 -5 0 -10 -7 -10 -15z"/>
</g>
</svg>
